<svg xmlns="http://www.w3.org/2000/svg" viewBox="0 0 512 512" role="img" aria-labelledby="title">
  <title id="title">TrackDash</title>
  <defs>
    <linearGradient id="bg" x1="0" y1="0" x2="1" y2="1">
      <stop offset="0" stop-color="#07111f"/>
      <stop offset="0.62" stop-color="#0b2f70"/>
      <stop offset="1" stop-color="#086cff"/>
    </linearGradient>
  </defs>
  <rect width="512" height="512" rx="106" fill="url(#bg)"/>
  <g transform="translate(45 145) scale(1.72)">
    <path d="M8 102 78 79 64 96 12 115Z" fill="#2f80ff"/>
    <path d="M12 121 83 91 67 112 16 134Z" fill="#38bdf8"/>
    <path d="M22 139 86 108 71 130 28 149Z" fill="#2f80ff"/>
    <path d="M77 44h69l23 27-18 12-17-17H91L70 83 58 66Z" fill="#f8fafc" stroke="#f8fafc" stroke-width="3.5" stroke-linejoin="round"/>
    <path d="M64 28h78l17 22h-44L96 45H67Z" fill="#07111f" stroke="#f8fafc" stroke-width="3.5" stroke-linejoin="round"/>
    <path d="M93 29h15l20 21h-16Z" fill="#ff4d4f"/>
    <path d="M108 29h15l20 21h-16Z" fill="#ffc933"/>
    <path d="M78 75h76l42 30-9 23h-50l-19-25H91l-14 16H57l5-24Z" fill="#f8fafc" stroke="#f8fafc" stroke-width="3.5" stroke-linejoin="round"/>
    <path d="m113 79 27 5 24 17h-33Z" fill="#07111f"/>
    <path d="m121 88 12 2 22 16h-12Z" fill="#ff4d4f"/>
    <path d="m133 90 10 4 21 15h-12Z" fill="#ffc933"/>
    <circle cx="88" cy="113" r="32" fill="#07111f" stroke="#f8fafc" stroke-width="3.5"/>
    <circle cx="88" cy="113" r="19" fill="#f8fafc"/>
    <circle cx="88" cy="113" r="8" fill="#07111f"/>
    <circle cx="165" cy="119" r="24" fill="#07111f" stroke="#f8fafc" stroke-width="3.5"/>
    <circle cx="165" cy="119" r="13" fill="#f8fafc"/>
    <circle cx="165" cy="119" r="6" fill="#07111f"/>
    <path d="M186 116h31l8 9-8 8h-37Z" fill="#f8fafc" stroke="#f8fafc" stroke-width="3.5" stroke-linejoin="round"/>
    <circle cx="216" cy="125" r="8" fill="#07111f" stroke="#f8fafc" stroke-width="3.5"/>
  </g>
</svg>